<?xml version="1.0" encoding="UTF-8" standalone="no"?>
<svg
   version="1.1"
   id="Capa_1"
   x="0px"
   y="0px"
   viewBox="0 0 256 256"
   xml:space="preserve"
   width="256"
   height="256"
   sodipodi:docname="logo.svg"
   inkscape:version="1.2.2 (b0a8486541, 2022-12-01)"
   xmlns:inkscape="http://www.inkscape.org/namespaces/inkscape"
   xmlns:sodipodi="http://sodipodi.sourceforge.net/DTD/sodipodi-0.dtd"
   xmlns="http://www.w3.org/2000/svg"
   xmlns:svg="http://www.w3.org/2000/svg"><defs
   id="defs799" /><sodipodi:namedview
   id="namedview797"
   pagecolor="#ffffff"
   bordercolor="#000000"
   borderopacity="0.25"
   inkscape:showpageshadow="2"
   inkscape:pageopacity="0.0"
   inkscape:pagecheckerboard="0"
   inkscape:deskcolor="#d1d1d1"
   showgrid="false"
   inkscape:zoom="2.2753906"
   inkscape:cx="255.78026"
   inkscape:cy="256"
   inkscape:window-width="2560"
   inkscape:window-height="1371"
   inkscape:window-x="0"
   inkscape:window-y="0"
   inkscape:window-maximized="1"
   inkscape:current-layer="Capa_1" />
<g
   id="g794"
   transform="matrix(0.49996464,0,0,0.4968555,0.45545701,-0.66429656)">
	<g
   id="g726">
		<path
   style="fill:#55d47b"
   d="m 22.02,176.402 c -5.254,1.384 -10.676,-1.746 -12.104,-6.988 -2.739,-10.049 -5.045,-27.285 4.278,-43.433 14.308,-24.782 44.528,-27.124 44.528,-27.124 0,0 13.082,27.342 -1.226,52.124 -9.325,16.148 -25.404,22.769 -35.476,25.421 z"
   id="path660" />
		<g
   id="g672">
			<path
   style="fill:#df8a57"
   d="M 461.55,261.032 C 487.915,188.596 464.898,127.74 414.217,84.921 L 360.534,70.096 c -10.922,-4.807 -1.859,15.739 2.949,26.662 4.931,11.202 -18.093,20.397 -18.093,20.397 46.261,52.062 27.978,95.938 9.209,126.742 0,0 103.589,26.371 106.951,17.135 z"
   id="path662" />
			<g
   id="g668">
				<path
   style="fill:#fce3a0"
   d="m 337.733,70.653 10.448,-41.791 c 3.787,-15.149 25.317,-15.149 29.104,0 l 10.448,41.791 z"
   id="path664" />
				<path
   style="fill:#fce3a0"
   d="m 377.474,70.653 10.448,-41.791 c 3.787,-15.149 25.317,-15.149 29.104,0 l 10.448,41.791 z"
   id="path666" />
			</g>
			<path
   style="fill:#df8a57"
   d="m 437.604,76.594 c 0,-24.09 -24.624,-28.009 -55,-28.009 -30.376,0 -55,3.919 -55,28.009 0,24.09 24.624,59.227 55,59.227 30.375,-0.001 55,-35.138 55,-59.227 z"
   id="path670" />
		</g>
		<g
   id="g682">
			<path
   style="fill:#df8a57"
   d="M 269.343,261.032 C 295.708,188.596 272.691,127.74 222.01,84.921 L 168.327,70.096 c -10.922,-4.807 -1.859,15.739 2.949,26.662 4.931,11.202 -18.093,20.397 -18.093,20.397 46.261,52.062 27.978,95.938 9.209,126.742 0,0 103.589,26.371 106.951,17.135 z"
   id="path674" />
			<g
   id="g678">
				<path
   style="fill:#fce3a0"
   d="m 145.526,70.653 10.448,-41.791 c 3.787,-15.149 25.317,-15.149 29.104,0 l 10.448,41.791 z"
   id="path676" />
			</g>
			<path
   style="fill:#df8a57"
   d="m 245.397,76.594 c 0,-24.09 -24.624,-28.009 -55,-28.009 -30.376,0 -55,3.919 -55,28.009 0,24.09 24.624,59.227 55,59.227 30.375,-0.001 55,-35.138 55,-59.227 z"
   id="path680" />
		</g>
		<path
   style="fill:#b8866b"
   d="M 409.5,46.536 H 94.19 c -3.704,0 -7.104,-2.047 -8.838,-5.32 L 72.479,16.904 C 69.416,11.118 63.405,7.5 56.859,7.5 v 0 c -13.32,0 -21.854,14.175 -15.62,25.946 l 4.278,8.079 c 1.204,2.273 -0.444,5.01 -3.016,5.01 v 0 c -19.33,0 -35,15.67 -35,35 v 0.001 c 0,19.33 15.67,35 35,35 H 409.5 c 19.33,0 35,-15.67 35,-35 v 0 c 0,-19.33 -15.67,-35 -35,-35 z"
   id="path684" />
		<g
   id="g694">
			<g
   id="g690">
				<path
   style="fill:#fff1cf"
   d="m 189.673,60.653 10.448,-41.791 c 3.787,-15.149 25.317,-15.149 29.104,0 l 10.448,41.791 z"
   id="path686" />
				<path
   style="fill:#fff1cf"
   d="m 229.414,60.653 10.448,-41.791 c 3.787,-15.149 25.317,-15.149 29.104,0 l 10.448,41.791 z"
   id="path688" />
			</g>
			<path
   style="fill:#e4996d"
   d="m 287.262,95.67 c -2.452,-2.826 -3.209,-6.778 -1.803,-10.245 2.632,-6.488 4.084,-12.985 4.084,-18.832 0,-24.09 -24.624,-28.009 -55,-28.009 -30.376,0 -55,3.919 -55,28.009 0,12.707 6.856,28.483 17.789,40.56 0,0 41.264,44.918 9.206,126.743 0,0 103.589,26.372 106.951,17.135 22.359,-61.428 9.199,-114.526 -26.227,-155.361 z"
   id="path692" />
		</g>
		<g
   id="g704">
			<g
   id="g700">
				<path
   style="fill:#fff1cf"
   d="m 410.923,49.846 24.111,-35.698 c 8.74,-12.94 28.971,-5.577 27.349,9.954 l -4.476,42.844 z"
   id="path696" />
				<path
   style="fill:#fff1cf"
   d="M 448.268,63.438 472.379,27.74 c 8.74,-12.94 28.972,-5.577 27.349,9.954 l -4.476,42.844 z"
   id="path698" />
			</g>
			<path
   style="fill:#eaaa83"
   d="m 502.74,89.585 c 8.239,-22.637 -13.56,-34.742 -42.103,-45.131 -28.544,-10.389 -53.024,-15.128 -61.263,7.509 -4.346,11.94 -3.299,29.111 2.844,44.198 0,0 36.809,94.194 -34.737,122.385 0,0 88.361,60.074 94.679,52.545 42.02,-50.077 47.814,-104.474 28.491,-154.962 -1.337,-3.494 -0.697,-7.467 1.81,-10.243 4.692,-5.197 8.279,-10.806 10.279,-16.301 z"
   id="path702" />
		</g>
		<g
   id="g710">
			<path
   style="fill:#eaaa83"
   d="m 504.5,345.93 c 0,72.4 -38.16,133.46 -116.92,152.45 -63.08,-37.1 -98.138,-90.68 -98.138,-155.2 0,-46.65 19.555,-87.18 62.468,-125.7 102.93,4.45 152.59,45.86 152.59,128.45 z"
   id="path706" />
			<path
   style="fill:#e4996d"
   d="m 387.58,498.38 c -16.51,3.99 -34.8,6.12 -54.9,6.12 C 216.7,504.5 84.5,433.51 84.5,345.93 c 0,-87.58 132.2,-128.85 248.18,-128.85 6.61,0 13.02,0.13 19.23,0.4 -27.13,33.73 -43.37,76.59 -43.37,123.24 0,64.52 31.06,121.79 79.04,157.66 z"
   id="path708" />
		</g>
		<path
   style="fill:#eaaa83"
   d="m 142.5,423.344 c -85.692,0 -135,-41.392 -135,-121.843 0,-67.204 50.432,-145.841 135,-145.841 84.568,0 135,78.637 135,145.841 0,80.451 -49.308,121.843 -135,121.843 z"
   id="path712" />
		<g
   id="g718">
			<path
   style="fill:#fff1cf"
   d="m 214.673,293.002 c 0,14.94 21.087,44.718 21.087,44.718 -7.38,18.76 -20.69,32.41 -39.25,40.83 -57.418,-17.76 -91.823,-63.82 -91.823,-116.02 0,-26.86 10.363,-51.391 37.483,-72.17 h 0.33 c 41.02,0 71.2,24.98 87.15,56.21 0,0 -14.977,29.252 -14.977,46.432 z"
   id="path714" />
			<path
   style="fill:#fce3a0"
   d="m 196.51,378.55 c -14.8,6.71 -32.92,10.1 -54.01,10.1 -47.069,0 -79.316,-16.857 -92.843,-49.869 0,0 22.894,-37.871 22.894,-53.279 0,-17.179 -17.198,-38.934 -17.198,-38.934 15.903,-31.139 45.964,-56.07 86.816,-56.208 -14.34,20.42 -22.75,45.31 -22.75,72.17 0.001,52.2 31.801,96.98 77.091,116.02 z"
   id="path716" />
		</g>
		<path
   style="fill:#8697a6"
   d="m 242.5,298.385 c 0,14.94 -2.29,28.06 -6.74,39.33 -0.14,0.36 -0.28,0.71 -0.43,1.06 -13.45,-9.78 -26.75,-17.31 -39.86,-22.41 -15.3,-5.95 -25.52,-20.49 -25.52,-36.9 0,-21.4 17.49,-37.7 37.6,-37.7 3.43,0 6.93,0.47 10.43,1.47 l 11.67,3.33 c 8.4,16.45 12.85,34.64 12.85,51.82 z"
   id="path720" />
		<path
   style="fill:#77899b"
   d="m 42.5,298.385 c 0,14.94 2.29,28.06 6.74,39.33 0.14,0.36 0.28,0.71 0.43,1.06 13.45,-9.78 26.75,-17.31 39.86,-22.41 15.3,-5.95 25.52,-20.49 25.52,-36.9 0,-21.4 -17.49,-37.7 -37.6,-37.7 -3.43,0 -6.93,0.47 -10.43,1.47 l -11.67,3.33 c -8.4,16.45 -12.85,34.64 -12.85,51.82 z"
   id="path722" />
		<path
   style="fill:#6b7d8e"
   d="m 122.5,319.306 c 0,9.389 8.954,20.4 20,20.4 11.046,0 20,-11.011 20,-20.4 0,-9.389 -8.954,-13.6 -20,-13.6 -11.046,0 -20,4.211 -20,13.6 z"
   id="path724" />
	</g>
	<g
   id="g792">
		<path
   style="fill:none;stroke:#000000;stroke-width:15;stroke-linecap:round;stroke-linejoin:round;stroke-miterlimit:10"
   d="m 63.61,116.54 c 1.32,9.81 0.82,22.42 -6.12,34.44 -9.32,16.15 -25.4,22.77 -35.47,25.42 -5.25,1.39 -10.68,-1.74 -12.1,-6.99 -2.74,-10.05 -5.05,-27.28 4.27,-43.43 3.25,-5.63 7.32,-10.1 11.67,-13.64"
   id="path728" />
		<g
   id="g738">
			<path
   style="fill:none;stroke:#000000;stroke-width:15;stroke-linecap:round;stroke-linejoin:round;stroke-miterlimit:10"
   d="m 367.56,218.48 c 10.91,-27.79 12.55,-62.25 -22.17,-101.33"
   id="path730" />
			<g
   id="g736">
				<path
   style="fill:none;stroke:#000000;stroke-width:15;stroke-linecap:round;stroke-linejoin:round;stroke-miterlimit:10"
   d="m 343.76,46.54 4.42,-17.68 c 3.79,-15.15 25.32,-15.15 29.1,0 l 4.42,17.68"
   id="path732" />
				<path
   style="fill:none;stroke:#000000;stroke-width:15;stroke-linecap:round;stroke-linejoin:round;stroke-miterlimit:10"
   d="m 383.5,46.54 4.42,-17.68 c 3.79,-15.15 25.32,-15.15 29.11,0 l 1.81,7.24"
   id="path734" />
			</g>
		</g>
		<g
   id="g744">
			<path
   style="fill:none;stroke:#000000;stroke-width:15;stroke-linecap:round;stroke-linejoin:round;stroke-miterlimit:10"
   d="M 178.89,160.87 C 174.82,147.09 166.8,132.48 153.18,117.15"
   id="path740" />
			<path
   style="fill:none;stroke:#000000;stroke-width:15;stroke-linecap:round;stroke-linejoin:round;stroke-miterlimit:10"
   d="m 189.55,46.72 -0.05,-0.18 -4.42,-17.68 c -3.79,-15.15 -25.32,-15.15 -29.11,0 l -4.42,17.68"
   id="path742" />
		</g>
		
			<line
   style="fill:none;stroke:#000000;stroke-width:15;stroke-linecap:round;stroke-linejoin:round;stroke-miterlimit:10"
   x1="408.09"
   y1="116.54"
   x2="302.72"
   y2="116.54"
   id="line746" />
		
			<line
   style="fill:none;stroke:#000000;stroke-width:15;stroke-linecap:round;stroke-linejoin:round;stroke-miterlimit:10"
   x1="401.95999"
   y1="46.540001"
   x2="279.26001"
   y2="46.540001"
   id="line748" />
		
			<line
   style="fill:none;stroke:#000000;stroke-width:15;stroke-linecap:round;stroke-linejoin:round;stroke-miterlimit:10"
   x1="203.92999"
   y1="116.54"
   x2="129"
   y2="116.54"
   id="line750" />
		<path
   style="fill:none;stroke:#000000;stroke-width:15;stroke-linecap:round;stroke-linejoin:round;stroke-miterlimit:10"
   d="M 94,116.54 H 42.5 c -9.66,0 -18.42,-3.92 -24.75,-10.25 C 11.42,99.96 7.5,91.2 7.5,81.54 7.5,71.88 11.42,63.12 17.75,56.79 24.08,50.46 32.84,46.54 42.5,46.54 c 2.57,0 4.22,-2.74 3.02,-5.01 l -4.28,-8.08 c -1.42,-2.69 -2.08,-5.51 -2.08,-8.26 0,-9.26 7.43,-17.69 17.7,-17.69 6.55,0 12.56,3.62 15.62,9.4 l 12.87,24.32 c 1.74,3.27 5.14,5.32 8.84,5.32 h 95.63"
   id="path752" />
		<g
   id="g760">
			<path
   style="fill:none;stroke:#000000;stroke-width:15;stroke-linecap:round;stroke-linejoin:round;stroke-miterlimit:10"
   d="m 193.74,44.373 6.38,-25.51 c 3.79,-15.15 25.32,-15.15 29.11,0 l 4.92,19.72"
   id="path754" />
			<path
   style="fill:none;stroke:#000000;stroke-width:15;stroke-linecap:round;stroke-linejoin:round;stroke-miterlimit:10"
   d="m 234.93,38.583 4.93,-19.72 c 3.79,-15.15 25.32,-15.15 29.11,0 l 6.37,25.51"
   id="path756" />
			<path
   style="fill:none;stroke:#000000;stroke-width:15;stroke-linecap:round;stroke-linejoin:round;stroke-miterlimit:10"
   d="m 218.55,181.072 c 2.49,-48.12 -21.22,-73.92 -21.22,-73.92 -10.93,-12.07 -17.79,-27.85 -17.79,-40.56 0,-24.09 24.63,-28.01 55,-28.01 30.38,0 55,3.92 55,28.01 0,5.85 -1.45,12.35 -4.08,18.84 -1.41,3.46 -0.65,7.41 1.8,10.24 28.75,33.14 42.83,74.34 35.18,121.52"
   id="path758" />
		</g>
		<g
   id="g768">
			<path
   style="fill:none;stroke:#000000;stroke-width:15;stroke-linecap:round;stroke-linejoin:round;stroke-miterlimit:10"
   d="m 420.309,35.949 14.72,-21.8 c 8.75,-12.94 28.98,-5.58 27.35,9.95 l -2.11,20.22"
   id="path762" />
			<path
   style="fill:none;stroke:#000000;stroke-width:15;stroke-linecap:round;stroke-linejoin:round;stroke-miterlimit:10"
   d="m 460.999,44.579 11.38,-16.84 c 8.74,-12.94 28.97,-5.58 27.35,9.95 l -2.74,26.17"
   id="path764" />
			<path
   style="fill:none;stroke:#000000;stroke-width:15;stroke-linecap:round;stroke-linejoin:round;stroke-miterlimit:10"
   d="m 472.539,257.609 c 32.47,-46.26 35.71,-95.49 18.11,-141.48 -1.34,-3.49 -0.7,-7.47 1.81,-10.24 4.69,-5.2 8.28,-10.81 10.28,-16.3 8.24,-22.64 -13.56,-34.75 -42.1,-45.14 -28.55,-10.38 -53.03,-15.12 -61.27,7.51 -4.34,11.94 -3.3,29.11 2.85,44.2 0,0 36.76,94.07 -34.59,122.33"
   id="path766" />
		</g>
		<path
   style="fill:none;stroke:#000000;stroke-width:15;stroke-linecap:round;stroke-linejoin:round;stroke-miterlimit:10"
   d="m 322.44,217.19 c 3.42,-0.07 6.84,-0.11 10.24,-0.11 12.33,0 23.98,0.47 34.95,1.41"
   id="path770" />
		<path
   style="fill:none;stroke:#000000;stroke-width:15;stroke-linecap:round;stroke-linejoin:round;stroke-miterlimit:10"
   d="m 119.41,422.25 c 47,49.03 133.93,82.25 213.27,82.25 52.36,0 92.45,-14.47 120.69,-38.4"
   id="path772" />
		<path
   style="fill:none;stroke:#000000;stroke-width:15;stroke-linecap:round;stroke-linejoin:round;stroke-miterlimit:10"
   d="m 472.54,257.61 c 21.43,20.98 31.96,50.28 31.96,88.32 0,35.33 -9.09,67.95 -27.54,94.31"
   id="path774" />
		<path
   style="fill:none;stroke:#000000;stroke-width:15;stroke-linecap:round;stroke-linejoin:round;stroke-miterlimit:10"
   d="m 277.22,311.67 c 0.19,-3.32 0.28,-6.71 0.28,-10.17 0,-67.2 -50.43,-145.84 -135,-145.84 -84.57,0 -135,78.64 -135,145.84 0,80.45 49.31,121.84 135,121.84 68.06,0 113.17,-26.11 128.84,-77.17"
   id="path776" />
		<path
   style="fill:none;stroke:#000000;stroke-width:15;stroke-linecap:round;stroke-linejoin:round;stroke-miterlimit:10"
   d="m 242.5,298.385 c 0,14.94 -2.29,28.06 -6.74,39.33 -13.26,33.71 -45.69,50.93 -93.26,50.93 -63.48,0 -100,-30.66 -100,-90.26 0,-49.78 37.36,-108.03 100,-108.03 41.02,0 71.2,24.98 87.15,56.21 8.4,16.45 12.85,34.64 12.85,51.82 z"
   id="path778" />
		<path
   style="fill:none;stroke:#000000;stroke-width:15;stroke-linecap:round;stroke-linejoin:round;stroke-miterlimit:10"
   d="m 242.5,298.385 c 0,14.94 -2.29,28.06 -6.74,39.33 -0.14,0.36 -0.28,0.71 -0.43,1.06 -13.45,-9.78 -26.75,-17.31 -39.86,-22.41 -15.3,-5.95 -25.52,-20.49 -25.52,-36.9 0,-21.4 17.49,-37.7 37.6,-37.7 3.43,0 6.93,0.47 10.43,1.47 l 11.67,3.33 c 8.4,16.45 12.85,34.64 12.85,51.82 z"
   id="path780" />
		<path
   style="fill:none;stroke:#000000;stroke-width:15;stroke-linecap:round;stroke-linejoin:round;stroke-miterlimit:10"
   d="m 42.5,298.385 c 0,14.94 2.29,28.06 6.74,39.33 0.14,0.36 0.28,0.71 0.43,1.06 13.45,-9.78 26.75,-17.31 39.86,-22.41 15.3,-5.95 25.52,-20.49 25.52,-36.9 0,-21.4 -17.49,-37.7 -37.6,-37.7 -3.43,0 -6.93,0.47 -10.43,1.47 l -11.67,3.33 c -8.4,16.45 -12.85,34.64 -12.85,51.82 z"
   id="path782" />
		<g
   id="g788">
			
				<line
   style="fill:none;stroke:#000000;stroke-width:15;stroke-linecap:round;stroke-linejoin:round;stroke-miterlimit:10"
   x1="80.051003"
   y1="273.50201"
   x2="80.051003"
   y2="285.50201"
   id="line784" />
			
				<line
   style="fill:none;stroke:#000000;stroke-width:15;stroke-linecap:round;stroke-linejoin:round;stroke-miterlimit:10"
   x1="204.94901"
   y1="273.50201"
   x2="204.94901"
   y2="285.50201"
   id="line786" />
		</g>
		<path
   style="fill:none;stroke:#000000;stroke-width:15;stroke-linecap:round;stroke-linejoin:round;stroke-miterlimit:10"
   d="m 122.5,319.306 c 0,9.389 8.954,20.4 20,20.4 11.046,0 20,-11.011 20,-20.4 0,-9.389 -8.954,-13.6 -20,-13.6 -11.046,0 -20,4.211 -20,13.6 z"
   id="path790" />
	</g>
</g>















</svg>
